<?xml version="1.0" encoding="UTF-8"?>
<svg width="1200pt" height="1200pt" version="1.1" viewBox="0 0 1200 1200" xmlns="http://www.w3.org/2000/svg">
 <g>
  <path d="m374.4 1092h-31.199c-9.6016 0-15.602-8.3984-12-16.801 6-12 13.199-22.801 20.398-33.602 3.6016-3.6016 9.6016-6 15.602-8.3984 33.602-9.6016 67.199-19.199 100.8-27.602 4.8008-1.1992 10.801-1.1992 15.602 1.1992 12 4.8008 13.199 19.199 3.6016 26.398-15.602 12-32.398 22.801-46.801 36-19.199 16.801-39.602 25.199-64.801 21.602l-1.2031 1.2031z"/>
  <path d="m567.6 1092h-27.602c-6 0-13.199-1.1992-15.602-7.1992-3.6016-6-1.1992-13.199 2.3984-18 10.801-14.398 26.398-25.199 43.199-32.398 8.3984-3.6016 18-7.1992 27.602-9.6016 6-1.1992 13.199 0 19.199 2.3984 13.199 6 25.199 13.199 38.398 19.199 6 3.6016 10.801 8.3984 9.6016 15.602 0 7.1992-6 10.801-12 13.199-15.602 6-30 12-45.602 15.602-13.195 2.3984-26.395 1.1992-39.594 1.1992v0z"/>
  <path d="m259.2 816c9.6016-9.6016 19.199-19.199 30-28.801 15.602-14.398 31.199-28.801 48-40.801 22.801-15.602 46.801-27.602 69.602-40.801l7.1992-34.801h-1.1992c-37.199 20.398-73.199 42-109.2 63.602-12 7.1992-22.801 13.199-34.801 19.199-2.3984 1.1992-4.8008 1.1992-6 1.1992 1.1992-2.3984 1.1992-4.8008 2.3984-7.1992 1.1992-2.3984 4.8008-4.8008 6-7.1992 1.1992-2.3984 2.3984-4.8008 3.6016-8.3984-2.3984 0-6-2.3984-8.3984-1.1992-25.199 7.1992-50.398 14.398-74.398 22.801-4.8008 1.1992-10.801 6-13.199 9.6016-14.398 24-27.602 48-40.801 72-1.1992 3.6016-1.1992 8.3984 0 12 2.3984 4.8008 7.1992 3.6016 10.801 2.3984 27.602-7.1992 56.398-14.398 84-20.398 9.5938-1.2031 19.195-6.0039 26.395-13.203z"/>
  <path d="m1021.2 620.4c-18 66-46.801 126-90 180-15.602 19.199-32.398 37.199-49.199 56.398-6 7.1992-6 16.801 0 22.801s15.602 7.1992 22.801 1.1992c3.6016-2.3984 7.1992-6 10.801-9.6016 55.199-56.398 97.199-120 124.8-194.4 20.398-55.199 32.398-111.6 33.602-171.6 1.1992-63.602-13.199-123.6-38.398-182.4-33.602-76.801-85.199-138-157.2-181.2-15.602-9.6016-33.602-18-50.398-25.199-13.199-6-25.199 4.8008-22.801 18 1.1992 7.1992 6 10.801 12 13.199 28.801 14.398 56.398 30 81.602 50.398 67.199 56.398 109.2 128.4 127.2 214.8 3.6016 16.801 0 24-15.602 31.199-42 19.199-85.199 38.398-127.2 57.602-15.602 7.1992-30 6-45.602-1.1992-48-25.199-97.199-48-146.4-73.199-7.1992-3.6016-13.199-6-20.398-9.6016-4.8008-2.3984-9.6016-7.1992-8.3984-13.199 1.1992-4.8008 4.8008-9.6016 9.6016-13.199 4.8008-2.3984 10.801-3.6016 16.801-4.8008 44.398-2.3984 81.602-42 69.602-90-6-27.602-22.801-45.602-49.199-54-26.398-8.3984-51.602-2.3984-72 16.801-16.801 15.602-22.801 36-22.801 57.602 0 9.6016-2.3984 18-9.6016 25.199-10.801 9.6016-24 14.398-38.398 14.398h-49.199c-4.8008 0-9.6016 1.1992-14.398 3.6016-54 30-106.8 60-160.8 88.801-7.1992 3.6016-12 9.6016-13.199 16.801-10.801 36-21.602 72-31.199 108-6 21.602-13.199 43.199-19.199 64.801-3.6016 14.398 7.1992 25.199 21.602 21.602 6-2.3984 10.801-6 14.398-10.801 6-8.3984 10.801-18 15.602-27.602 20.398-37.199 42-75.602 62.398-112.8 3.6016-6 7.1992-12 12-15.602 18-10.801 36-21.602 54-31.199 8.3984-4.8008 15.602-1.1992 16.801 9.6016 0 4.8008 0 10.801-1.1992 15.602-6 25.199-12 50.398-18 75.602l-25.199 145.2c0 3.6016 0 7.1992-1.1992 10.801-2.3984 15.602-6 31.199-8.3984 46.801l-2.3984 12c-3.6016 16.801-6 34.801-9.6016 51.602-2.3984 13.199-8.3984 22.801-20.398 28.801-6 2.3984-10.801 6-15.602 9.6016-67.199 38.398-135.6 78-202.8 116.4-12 7.1992-14.398 14.398-8.3984 26.398 12 24 24 46.801 37.199 70.801 2.3984 3.6016 8.3984 8.3984 12 9.6016 21.602 1.1992 44.398 1.1992 66 0 4.8008 0 8.3984-3.6016 7.1992-9.6016-1.1992-3.6016-2.3984-7.1992-4.8008-9.6016-6-9.6016-12-18-18-27.602-12-20.398-10.801-26.398 9.6016-37.199 70.801-34.801 140.4-68.398 211.2-103.2 7.1992-3.6016 12-8.3984 14.398-16.801 8.3984-33.602 16.801-67.199 26.398-100.8 6-20.398 20.398-25.199 38.398-13.199 28.801 20.398 56.398 42 85.199 61.199 13.199 8.3984 20.398 20.398 26.398 34.801 20.398 56.398 40.801 112.8 61.199 169.2 4.8008 12 9.6016 25.199 14.398 37.199 3.6016 9.6016 10.801 14.398 21.602 14.398h96 100.8c8.3984 0 12-4.8008 9.6016-13.199-3.6016-10.801-10.801-13.199-20.398-15.602-36-7.1992-70.801-14.398-106.8-20.398-25.199-3.6016-40.801-16.801-46.801-42-4.8008-21.602-10.801-42-16.801-63.602-9.6016-37.199-20.398-74.398-28.801-111.6-2.3984-9.6016-6-16.801-13.199-24l-54-54c-32.398-32.398-64.801-64.801-97.199-97.199-21.602-21.602-18-51.602 8.3984-66 28.801-16.801 56.398-32.398 85.199-46.801 18-9.6016 37.199-9.6016 55.199 0 30 15.602 60 31.199 90 48 10.801 6 21.602 6 32.398 0 21.602-12 43.199-22.801 63.602-33.602 27.602-14.398 55.199-28.801 82.801-42 15.602-8.3984 26.398-1.1992 27.602 16.801v4.8008c-3.6172 33.602-8.4141 62.402-16.816 91.199z"/>
 </g>
</svg>
