<?xml version="1.0" encoding="UTF-8"?>
<svg width="1200pt" height="1200pt" version="1.1" viewBox="0 0 1200 1200" xmlns="http://www.w3.org/2000/svg">
 <g>
  <path d="m1027.5 627.62c-0.625 6.75 0.75 12.125 4 15.875 2.125 2.375 4.75 4 7.375 5-1.875-10.75-3-30 1.625-61.75 4.625-32-12.375-54-24.125-65 0.25 21.875-3.75 44-9.125 64.75 10 5.625 22.375 18.625 20.25 41.25z"/>
  <path d="m223 201.12c-38.75 45.5-42.875 96-43.375 104.12 1.875 4.625 4.875 9.625 9 10.25 6.25 0.75 15.25-7.75 20-13.625-2-10.875-5.5-47.625 27.875-87.625 26.25-31.625 34-61.375 35.75-81-2.5 4.375-5.5 9.375-8.75 14.75-11.875 19.125-26 36.375-39.625 52.25-0.25 0.375-0.5 0.75-0.75 1z"/>
  <path d="m149 314.62c5.25 2 12.75 3.25 18.75-5.5 0-0.25-0.125-0.375-0.25-0.5-0.25-0.75-0.375-1.5-0.375-2.25 0-2.5 1.125-60.875 47-114.12l0.125-0.125c8.875-12.625 13.25-32.5 15.375-47.625-7.5 8-19 18.625-36.25 32.125-33.625 26.375-54.5 96.75-49.75 127 1 6.125 3 10.25 5.5 11.125z"/>
  <path d="m92 425.38c-7.375 8.5-14.125 15.625-18 19.75 4.375 8.125 16 27.25 30.5 32 5.375 1.75 10.625 1.25 15.875-1.625 3.125-1.75 6.375-3.25 9.625-4.625-2.875-17.375-25.125-36.5-38-45.625z"/>
  <path d="m397.88 688.75-71.5 95.75 9.625 188.25 34.25 42.625c1.75 2.125 1.875 5 0.375 7.25-2.625 4-3.375 8.75-2.25 13.5 1.125 4.5 3.875 8.25 7.75 10.625l31.5-38.625-40.125-52.875c-0.75-1-1.25-2.25-1.25-3.625l-4.75-146.5c0-2.125 1-4.125 2.75-5.375l108.88-75c1.25-0.875 2.625-1.125 4-1-1.625-4.5-3.25-8.625-5-12.625-26.875-4.625-51.625-12.375-74.25-22.375z"/>
  <path d="m867.88 714.12c-12.75-15.125-21.75-31.375-28-47.75-13.75 8.625-35.75 15.75-61.625 21.5 19 34.875 63.625 119.88 67 155.38 4.25 43.375-105.5 180.25-118 195.75-0.75 1-1.875 1.75-3.125 2.125-14.875 4.375-37.125 14.625-43.75 25.75h72.125c59.875-76.75 154-201.62 157.75-217.5 2-8.875-9-34.25-18.75-56.75-12.75-29.25-25.75-59.5-23.625-78.375z"/>
  <path d="m1086.1 800c-19-11.625-132.5-84.375-109.75-155.75 1.375-4.5 3-9.375 4.75-14.5 15.625-47 39.25-118.12 6-168.88-22.875-35-70.375-56-141.25-62.625-119.62-11.125-197.75 9.25-280.38 30.875-63.875 16.75-129.75 33.875-219.25 38.5-14.875 0.75-30.375 1.25-46.625 1.25-3.5 0-6.25-2.75-6.25-6.25s2.75-6.25 6.25-6.25c11 0 21.5-0.25 31.75-0.625-10.875-11.375-26.375-30.875-30-52.125-3.5-20.625-16.375-42-23.625-52.875-7.875 10.375-17.75 20-30.375 28-1 0.625-2.25 1-3.375 1-2.125 0-4.125-1-5.25-2.875-1.875-2.875-1-6.75 1.875-8.625 49.875-31.75 53.625-93.875 53.125-116.38-32.125 13.875-59.25 40-73.375 55.375-0.75 1-3.25 4.375-6.875 8.125-5.875 5.875-14.625 12.75-24 12.75-0.75 0-1.625 0-2.375-0.125-4.875-0.625-9-3.125-12.5-7.25-5.125 5.25-11.375 7.875-18.375 7.875-3.625 0-7.5-0.75-11.5-2.25-0.75-0.25-1.5-0.625-2.25-1.125-4.375 10.5-11.25 28.75-13.25 42.875-1.625 11.875-15.25 31-29 47.625 11.5 8.375 36.375 28.375 41.625 50.625 27.375-9.375 54.25-11.125 55.75-11.25h0.125c0.625 0 1.25 0 1.875 0.25h0.5c0.625 0.25 1.125 0.5 1.625 0.875 0.125 0 0.375 0.25 0.5 0.375 0.25 0.25 0.5 0.625 0.75 1s0.5 0.625 0.75 1v0.125c11.875 29.375 70.125 157.62 193.5 215.62 1 0.125 1.875 0.5 2.75 1.125 0.125 0 0.25 0.25 0.375 0.375 20 9.125 41.75 16.375 65.25 21-12.75-23.625-26.125-35.5-26.375-35.75-2.625-2.25-2.875-6.25-0.625-8.875s6.25-2.875 8.75-0.625c2 1.75 47.875 42.375 53.375 125.25 2.125 33.5 8.625 71.875 14.875 109.12 9 53.375 17.5 103.88 13.25 137.38-0.25 2.25-1.75 4.125-3.875 5-10 4-33.875 16.5-40.375 30.625h55.375c3.875-4.875 13.375-18.5 15.25-36.25 1.375-12.75-1.375-47.75-4.125-84.875-2.5-33-5.125-67.125-5.625-92.625-0.25-14.75 0.25-33.625 0.875-53.5 1.125-42.25 3.125-113-7.125-120.75-2.75-2.125-3.375-6-1.25-8.75s6-3.375 8.75-1.25c6.75 5 10.25 18.125 11.875 37.875 11.625-0.5 128.38-5.25 209.25-21.625h0.5c29.625-6 54.375-13.75 67.25-23.25-16.875-54.625-6-105.75-5.875-106.62 0.75-3.375 4.125-5.5 7.5-4.75s5.5 4.125 4.75 7.5c-0.25 1.25-26 123.62 69.625 185.75 100.62 65.375 136.38 125.88 137.88 128.38 0.375 0.625 0.625 1.25 0.75 1.875l30 149c0.5 2.5-0.625 5.125-2.75 6.5-11 6.875-37.375 26.875-42.25 44.25l83.25-6.625 7.5-34.25-39.875-225.38zm-901.5-421.5h-11.375c-6.25 0-11.25-5-11.25-11.25s5-11.25 11.25-11.25h11.375c6.25 0 11.25 5 11.25 11.25s-5 11.25-11.25 11.25zm595.5 83.25c-1.25 1.625-3.125 2.625-5 2.625-1.25 0-2.625-0.375-3.625-1.25l-10.5-7.625c-2.75-2-3.375-6-1.375-8.75s6-3.375 8.75-1.375l10.5 7.625c2.75 2 3.375 6 1.375 8.75zm34.375 39.875c-1.25 1.625-3.125 2.625-5 2.625-1.25 0-2.625-0.375-3.625-1.25l-10.5-7.75c-2.75-2-3.375-6-1.375-8.75s6-3.375 8.75-1.375l10.5 7.75c2.75 2 3.375 6 1.375 8.75zm17.375-59.125c-1.25 1.625-3.125 2.625-5 2.625-1.25 0-2.625-0.375-3.625-1.25l-10.5-7.75c-2.75-2-3.375-6-1.375-8.75s6-3.375 8.75-1.375l10.5 7.75c2.75 2 3.375 6 1.375 8.75zm50 73.125c-1.25 1.625-3.125 2.625-5 2.625-1.25 0-2.625-0.375-3.625-1.25l-10.5-7.75c-2.75-2-3.375-6-1.375-8.75s6-3.375 8.75-1.375l10.5 7.75c2.75 2 3.375 6 1.375 8.75zm21.625-54c-1.25 1.625-3.125 2.625-5 2.625-1.25 0-2.625-0.375-3.625-1.25l-10.5-7.625c-2.75-2-3.375-6-1.375-8.75s6-3.375 8.75-1.375l10.5 7.625c2.75 2 3.375 6 1.375 8.75zm33.25 50.125c-1.25 1.625-3.125 2.625-5 2.625-1.25 0-2.625-0.375-3.625-1.25l-10.5-7.75c-2.75-2-3.375-6-1.375-8.75s6-3.375 8.75-1.375l10.5 7.75c2.75 2 3.375 6 1.375 8.75z"/>
 </g>
</svg>
